# xmcd CD database file
#
# Track frame offsets:
#	150
#	20302
#	41790
#	58793
#	95771
#	127363
#	146575
#	176131
#	192730
#	234518
#
# Disc length: 3862 seconds
#
# Revision: 0
# Processed by: cddbd v1.5.2PL0 Copyright (c) Steve Scherf et al.
# Submitted via: CDex 1.51
#
DISCID=9c0f140a
DTITLE=The Heavy Quartet - Machine
DYEAR=2004
DGENRE=Jazz
TTITLE0=Desert Song
TTITLE1=Cresecent City Blues
TTITLE2=Hot Banana Boy
TTITLE3=Bore Sul
TTITLE4=Machine
TTITLE5=Skaface
TTITLE6=My Jungle
TTITLE7=HIPPO
TTITLE8=Unreal City
TTITLE9=And Your Heart Beats
EXTD=YEAR: 2004
EXTT0=
EXTT1=
EXTT2=
EXTT3=
EXTT4=
EXTT5=
EXTT6=
EXTT7=
EXTT8=
EXTT9=
PLAYORDER=
